# xmcd
# 
# Track frame offsets:
#     150
#     19271
#     37885
#     60734
#     80167
#     96341
#     107183
#     128733
#     147302
#     162676
#     179592
#     194870
#     214656
#     233706
#     248478
#     264372
# 
# Disc length: 3813
# 
# Revision: 2
# Processed by: cddbd v1.5.2PL0 Copyright (c) Steve Scherf et al.
# Submitted via: fre:ac v1.1beta1pre5
# 
DISCID=ec0ee310
DTITLE=Prinz Pi - Im Westen nix Neues
DYEAR=2016
DGENRE=Deutschrap
TTITLE0=Rebell ohne Grund
TTITLE1=21:04
TTITLE2=Weisse Tapete
TTITLE3=1,40m
TTITLE4=Werte
TTITLE5=Kartenhaus
TTITLE6=Im Jetzt ist das Chaos
TTITLE7=Familienalbumseite
TTITLE8=Die Füllung vom Kissen
TTITLE9=Ballade für Jojo
TTITLE10=Schwermetall
TTITLE11=Wasser zu Wein
TTITLE12=Schornsteine
TTITLE13=Im Westen nix Neues
TTITLE14=Strahlen von Gold
TTITLE15=Lösung
EXTD=
EXTT0=
EXTT1=
EXTT2=
EXTT3=
EXTT4=
EXTT5=
EXTT6=
EXTT7=
EXTT8=
EXTT9=
EXTT10=
EXTT11=
EXTT12=
EXTT13=
EXTT14=
EXTT15=
PLAYORDER=
